<?xml version="1.0" standalone="no"?>
<svg xmlns:xlink="http://www.w3.org/1999/xlink" id="wave" style="transform:rotate(180deg); transition: 0.3s" viewBox="0 0 1440 120" version="1.1" xmlns="http://www.w3.org/2000/svg"><defs><linearGradient id="sw-gradient-0" x1="0" x2="0" y1="1" y2="0"><stop stop-color="rgba(255, 255, 255, 1)" offset="0%"/><stop stop-color="rgba(255, 255, 255, 1)" offset="100%"/></linearGradient></defs><path style="transform:translate(0, 0px); opacity:1" fill="url(#sw-gradient-0)" d="M0,60L80,66C160,72,320,84,480,78C640,72,800,48,960,44C1120,40,1280,56,1440,62C1600,68,1760,64,1920,66C2080,68,2240,76,2400,76C2560,76,2720,68,2880,60C3040,52,3200,44,3360,48C3520,52,3680,68,3840,76C4000,84,4160,84,4320,82C4480,80,4640,76,4800,66C4960,56,5120,40,5280,38C5440,36,5600,48,5760,56C5920,64,6080,68,6240,60C6400,52,6560,32,6720,36C6880,40,7040,68,7200,78C7360,88,7520,80,7680,64C7840,48,8000,24,8160,18C8320,12,8480,24,8640,30C8800,36,8960,36,9120,34C9280,32,9440,28,9600,28C9760,28,9920,32,10080,40C10240,48,10400,60,10560,62C10720,64,10880,56,11040,60C11200,64,11360,80,11440,88L11520,96L11520,120L11440,120C11360,120,11200,120,11040,120C10880,120,10720,120,10560,120C10400,120,10240,120,10080,120C9920,120,9760,120,9600,120C9440,120,9280,120,9120,120C8960,120,8800,120,8640,120C8480,120,8320,120,8160,120C8000,120,7840,120,7680,120C7520,120,7360,120,7200,120C7040,120,6880,120,6720,120C6560,120,6400,120,6240,120C6080,120,5920,120,5760,120C5600,120,5440,120,5280,120C5120,120,4960,120,4800,120C4640,120,4480,120,4320,120C4160,120,4000,120,3840,120C3680,120,3520,120,3360,120C3200,120,3040,120,2880,120C2720,120,2560,120,2400,120C2240,120,2080,120,1920,120C1760,120,1600,120,1440,120C1280,120,1120,120,960,120C800,120,640,120,480,120C320,120,160,120,80,120L0,120Z"/></svg>